# xmcd
#
# Track frame offsets:
# 182
# 14880
# 31390
# 45077
# 57190
# 75247
# 90330
# 104270
# 120442
# 136900
#
# Disc length: 2088 seconds
#
#
# Revision: 8
# Processed by: cddbd v1.5.2PL0 Copyright (c) Steve Scherf et al.
# Submitted via: FreeRIP 2.951 
#
DISCID=6b08260a
DTITLE=Randy Travis - Super Hits Series - Vol. 1 - Randy Travis -Super Hits Series - Vol. 1
DYEAR=1996
DGENRE=Country
TTITLE0=Heroes And Friends
TTITLE1=I Told You So
TTITLE2=No Stopping Us Now
TTITLE3=Better Class Of Losers
TTITLE4=Promises
TTITLE5=The Box
TTITLE6=Future Mister Me
TTITLE7=Oh, What A Time To Be Me
TTITLE8=Good Intentions
TTITLE9=Reasons I Cheat
EXTD=Mario´s Musik
EXTT0=
EXTT1=
EXTT2=
EXTT3=
EXTT4=
EXTT5=
EXTT6=
EXTT7=
EXTT8=
EXTT9=
PLAYORDER=
